<?xml version="1.0" encoding="UTF-8"?>
<svg id="Camada_2" data-name="Camada 2" xmlns="http://www.w3.org/2000/svg" viewBox="0 0 267.85 140.69">
  <defs>
    <style>
      .cls-1 {
        fill: #fefefe;
      }
    </style>
  </defs>
  <g id="Camada_1-2" data-name="Camada 1">
    <path class="cls-1" d="M267.5,47.1l-.04.05c-5.43,4.01-15.92,8.16-22.82,11.77-9.72,4.6-21.73,10.85-31.05,14.73-4.84,2.03-9.31,2.62-14.44,2.53-8.87.01-24.94,0-41.28,0,.62,9.27-1.53,18.89-5.7,27.04-.48.97-1.01,1.92-1.56,2.85-8.27,14.09-22.96,23.29-38.29,28.5-3.4,1.12-6.86,2.07-10.37,2.86-17.66,3.99-36.49,3.95-54.15,1.87-12.91-1.62-25.93-4.79-37.82-9.83-3.09-1.27-8.03-3.48-9.56-5.72-2.85-4.33,9.46-8.71,13.68-11.07,7.96-3.71,16.77-8.55,24.57-11.35.57-.2,1.13-.38,1.69-.54,4.66-1.37,9.12-1.51,13.97-.95,14.23,1.62,34.73,4.79,46.02-5.75,8.24-8.82-.61-17.47-9.71-20.65-21.04-7.78-66.1-10.18-81.52-27.68-.58-.65-1.14-1.32-1.68-2.01C1,35.31-.86,24.48.35,14.16c.03-.25.07-.49.1-.74C1.38,6,7.65.4,15.13.29c44.52-.69,147.54.11,183.57-.16,17.97.07,49.5-.09,65.45.07,1.18.04,2.11.12,2.74.26,1.04.22,1.22.64.61,1.28l-.04.04c-5.43,4.02-15.92,8.17-22.82,11.78-9.72,4.6-21.73,10.85-31.05,14.72-4.84,2.04-9.31,2.63-14.44,2.54-15.78.01-54.37,0-76.68,0-7.21.03-13.27-.08-15.53.17-.46.07-.83.08-1.05.34-.8.55,8.01,2.94,11.53,4.16,7.55,2.4,15.36,5.54,22.08,9.98,23.62.07,45.19.12,59.2.02,17.97.07,49.5-.09,65.45.07,1.18.04,2.11.12,2.74.26,1.04.23,1.22.64.61,1.28Z"/>
  </g>
</svg>